<?xml version="1.0" standalone="no"?>
<!DOCTYPE svg PUBLIC "-//W3C//DTD SVG 20010904//EN"
 "http://www.w3.org/TR/2001/REC-SVG-20010904/DTD/svg10.dtd">
<svg version="1.0" xmlns="http://www.w3.org/2000/svg"
 width="219.000000pt" height="219.000000pt" viewBox="0 0 219.000000 219.000000"
 preserveAspectRatio="xMidYMid meet">
<metadata>
Created by potrace 1.11, written by Peter Selinger 2001-2013
</metadata>
<g transform="translate(0.000000,219.000000) scale(0.100000,-0.100000)"
fill="#000000" stroke="none">
<path d="M887 2012 c-27 -6 -57 -34 -50 -45 4 -6 1 -7 -6 -2 -14 8 -81 -51
-81 -72 0 -7 -4 -13 -10 -13 -5 0 -10 -7 -10 -15 0 -13 -11 -19 -31 -17 -58 8
-86 8 -122 0 -81 -18 -87 -16 -145 40 -30 28 -59 52 -64 52 -6 0 -22 9 -36 19
-15 10 -29 20 -32 22 -3 1 -15 -3 -26 -9 -19 -10 -21 -19 -19 -89 1 -45 8 -93
17 -113 25 -55 31 -74 33 -92 1 -10 7 -24 14 -31 10 -13 20 -162 10 -171 -4
-4 -17 -7 -94 -22 -30 -5 -45 -19 -45 -42 0 -13 73 -11 133 4 16 4 27 2 27 -4
0 -10 -31 -24 -97 -43 -45 -13 -48 -16 -34 -38 6 -9 18 -11 37 -7 88 19 88 19
19 -31 -22 -16 -41 -34 -43 -42 -1 -7 2 -10 8 -6 5 3 10 1 10 -4 0 -19 18 -12
53 19 19 17 38 30 42 30 4 0 18 9 32 20 l25 19 32 -24 c31 -24 109 -57 123
-52 4 1 8 -27 9 -63 3 -72 17 -175 24 -175 1 0 3 -7 5 -15 1 -8 12 -46 25 -85
32 -104 32 -267 0 -295 -11 -9 -52 -84 -56 -102 -2 -10 -6 -27 -8 -38 -6 -24
61 -100 88 -100 18 0 81 31 106 52 8 7 24 27 34 43 11 17 25 34 32 38 14 8 74
127 74 145 0 6 5 23 12 37 9 19 16 24 32 19 12 -4 27 -7 34 -7 10 0 12 -19 10
-76 -3 -70 -6 -79 -36 -110 -17 -19 -30 -36 -27 -39 11 -11 -31 -29 -58 -25
-88 14 -158 -108 -112 -197 8 -16 40 -43 71 -61 52 -29 66 -33 153 -35 196 -5
217 -5 241 1 14 3 59 8 100 10 219 12 273 19 339 45 85 33 124 56 151 89 14
17 28 31 33 31 12 0 56 53 57 68 0 6 5 12 11 12 6 0 8 7 5 16 -3 8 -2 12 3 9
21 -12 34 45 33 150 0 76 -5 110 -22 130 -9 10 -18 109 -21 215 -1 8 -11 53
-24 100 -13 47 -26 101 -30 120 -10 49 -43 111 -71 133 -13 10 -24 24 -24 31
0 21 -141 155 -188 180 -10 4 -31 23 -47 41 -29 30 -55 45 -160 88 -34 14
-129 43 -169 52 -19 4 -216 93 -226 102 -2 2 -5 18 -5 36 -1 18 -3 49 -3 71
-2 35 -4 37 -19 25 -16 -12 -17 -12 -6 2 14 17 8 69 -10 85 -7 6 -20 9 -30 6z
m3 -95 c0 -13 3 -27 8 -31 8 -9 11 -34 15 -135 2 -68 4 -74 25 -77 19 -3 22 1
22 26 0 17 2 30 4 30 8 0 115 -45 192 -81 22 -10 53 -21 70 -23 28 -4 96 -26
139 -45 11 -5 35 -15 53 -21 18 -7 42 -24 55 -39 12 -14 37 -37 55 -50 19 -13
46 -35 60 -49 15 -13 37 -31 50 -39 43 -29 144 -173 158 -227 15 -57 18 -88 6
-70 -4 6 -38 35 -76 64 -62 46 -70 50 -79 34 -8 -14 -4 -23 20 -43 94 -81 153
-145 153 -167 0 -8 7 -28 15 -44 8 -16 18 -45 21 -66 3 -20 7 -46 10 -57 2
-11 -5 -39 -15 -61 -10 -23 -24 -72 -31 -110 -21 -115 -46 -137 -255 -227 -91
-39 -183 -50 -209 -24 -34 34 -9 86 52 106 20 7 40 12 45 11 4 -1 7 3 7 8 0
13 -49 60 -62 60 -5 0 -7 4 -4 9 4 5 -5 31 -18 57 -14 27 -22 53 -18 58 3 6 8
46 9 89 4 84 30 169 63 207 11 13 17 26 13 29 -4 3 -10 9 -14 14 -18 24 -101
-114 -101 -168 0 -5 0 -21 1 -35 0 -14 0 -59 -1 -100 0 -90 4 -120 14 -114 4
3 8 -1 8 -10 0 -8 6 -17 13 -19 6 -3 1 -6 -13 -7 -14 -1 -38 -3 -53 -4 -16 -1
-35 3 -43 9 -12 8 -12 14 1 39 9 16 13 31 10 34 -3 3 -5 -1 -5 -8 0 -7 -2 -11
-5 -8 -3 3 1 18 9 33 8 16 13 32 10 37 -3 4 0 8 7 8 9 0 9 3 0 14 -7 9 -8 15
-2 18 6 1 13 32 17 68 3 36 8 69 11 73 3 4 -3 19 -11 32 -9 14 -14 36 -12 50
3 13 0 27 -5 30 -5 4 -5 14 1 26 6 10 8 19 4 19 -3 0 -1 6 5 13 6 8 8 17 4 20
-3 4 -2 7 3 7 19 0 12 40 -8 51 -15 8 -19 8 -14 0 4 -6 2 -11 -5 -11 -7 0 -10
-3 -6 -6 3 -4 0 -22 -8 -40 -8 -19 -12 -34 -9 -34 3 0 0 -9 -6 -20 -6 -11 -7
-20 -2 -20 5 0 7 -11 4 -25 -2 -14 0 -25 5 -25 10 0 10 -119 -1 -195 -3 -22
-7 -57 -10 -77 -3 -21 -10 -46 -15 -57 -6 -11 -11 -29 -11 -39 0 -36 -44 -105
-108 -169 -59 -58 -67 -63 -107 -63 -45 0 -57 9 -63 47 -3 23 23 72 45 86 24
15 41 62 41 117 0 30 3 66 6 80 9 41 13 140 4 140 -4 0 -4 7 -1 17 4 11 3 14
-5 9 -8 -4 -10 -2 -6 8 3 8 -1 25 -9 38 -7 13 -20 43 -27 68 -33 116 -60 178
-82 183 -23 6 -33 -10 -18 -28 7 -8 9 -15 5 -15 -5 0 -1 -8 7 -17 14 -16 35
-81 42 -125 1 -10 5 -21 9 -24 4 -4 7 -15 7 -24 0 -10 7 -23 15 -30 9 -7 14
-18 12 -24 -3 -6 2 -19 11 -28 8 -10 11 -18 5 -18 -5 0 -9 -16 -8 -35 2 -28
-1 -35 -16 -35 -10 0 -21 5 -24 10 -4 6 -25 20 -48 31 -148 73 -237 147 -229
187 2 7 -4 19 -12 28 -8 8 -20 31 -26 52 -16 53 -23 192 -10 193 5 1 13 2 18
3 4 1 29 6 56 10 50 8 83 24 123 59 21 19 24 19 57 3 19 -9 48 -19 65 -22 17
-4 34 -11 37 -15 3 -5 12 -9 20 -9 8 0 12 5 9 10 -3 6 -1 10 4 10 20 0 11 15
-16 32 -16 8 -45 18 -65 22 -41 8 -52 24 -15 24 97 0 154 19 129 44 -11 11
-32 12 -109 5 -21 -2 -33 1 -33 9 0 20 18 27 84 29 81 4 78 4 71 15 -3 6 0 10
7 10 7 1 2 7 -11 14 -13 7 -38 12 -55 10 -93 -10 -129 -15 -137 -20 -5 -3 -7
-18 -4 -35 5 -30 -8 -64 -35 -87 -14 -12 -105 -62 -113 -62 -2 0 -2 11 0 24 5
23 3 24 -28 20 -19 -3 -40 -7 -47 -9 -22 -8 -41 6 -47 37 -5 22 -2 33 12 43
29 22 2 39 -54 36 -29 -1 -29 -14 1 -44 17 -17 22 -31 19 -50 -5 -26 -35 -41
-51 -25 -6 6 -15 3 -26 -7 -15 -15 -19 -13 -51 22 -19 21 -33 43 -30 50 2 7 0
15 -5 18 -6 4 -10 16 -10 29 0 12 -3 26 -7 30 -4 4 -6 23 -4 42 1 19 -3 42
-10 50 -16 20 -19 55 -7 72 7 7 7 12 1 12 -5 0 -10 7 -10 15 0 13 2 13 17 0
22 -20 48 -10 56 21 5 18 -3 36 -27 68 -29 37 -38 43 -64 39 l-31 -4 2 51 c0
28 4 53 7 56 10 10 100 -59 122 -93 33 -50 51 -57 86 -33 40 29 123 37 171 17
37 -16 37 -16 62 16 50 63 111 126 124 126 6 1 12 -9 12 -22z m-525 -215 c-8
-8 -25 10 -25 26 0 13 2 13 14 -4 8 -10 13 -21 11 -22z m251 -409 c-7 -8 -46
12 -46 24 0 11 5 10 24 -4 13 -10 23 -19 22 -20z m658 -311 c3 -5 -1 -9 -9 -9
-8 0 -12 4 -9 9 3 4 7 8 9 8 2 0 6 -4 9 -8z m13 -67 c0 -8 -4 -12 -9 -9 -5 3
-6 10 -3 15 9 13 12 11 12 -6z m-523 -100 c37 -24 76 -47 86 -50 19 -6 20 -26
2 -80 -17 -52 -63 -144 -75 -152 -7 -5 -23 -25 -37 -45 -14 -20 -41 -45 -62
-54 -33 -15 -38 -15 -53 -1 -39 40 -35 74 17 133 41 46 62 168 44 257 -4 20
-3 37 2 37 4 0 38 -20 76 -45z m1131 -136 c4 -6 9 -29 11 -52 2 -23 9 -44 15
-46 8 -2 7 -6 -1 -11 -7 -4 -13 -26 -14 -48 0 -22 -4 -38 -7 -36 -10 6 -20
-26 -12 -38 3 -6 2 -9 -3 -6 -11 7 -35 -17 -27 -26 4 -3 -2 -13 -13 -22 -10
-8 -13 -12 -5 -8 9 5 12 3 7 -5 -4 -6 -11 -9 -15 -7 -4 3 -29 -12 -57 -32 -72
-55 -115 -79 -154 -87 -19 -4 -40 -11 -45 -15 -6 -5 -37 -9 -70 -9 -33 0 -82
-2 -110 -5 -95 -10 -220 -19 -260 -19 -140 0 -262 10 -284 23 -63 38 -78 68
-61 129 7 25 18 42 31 46 24 8 49 -10 49 -36 0 -10 11 -26 24 -34 34 -23 49
-25 171 -25 17 0 92 0 167 -1 75 -1 142 3 150 7 7 5 36 10 65 11 70 4 299 96
351 141 13 12 28 22 33 24 6 2 11 13 12 26 0 12 4 22 7 22 3 0 5 15 6 33 0 17
3 43 7 57 3 14 6 33 6 43 1 19 16 23 26 6z m-547 -143 c48 4 49 -4 0 -27 -134
-64 -138 -65 -138 -28 0 22 22 49 40 49 6 0 9 4 5 9 -3 6 6 7 22 2 16 -4 47
-6 71 -5z m-97 -117 c27 16 36 14 42 -11 2 -13 7 -30 11 -39 6 -13 -7 -16
-100 -17 l-106 -1 28 32 c41 45 44 46 77 34 22 -7 35 -7 48 2z"/>
<path d="M815 1845 c-8 -14 -21 -35 -28 -47 -8 -13 -12 -29 -10 -36 6 -16 80
-55 86 -44 23 41 15 127 -14 142 -15 8 -21 5 -34 -15z"/>
<path d="M663 1551 c-20 -17 -21 -20 -7 -40 21 -29 70 -29 80 1 5 16 1 27 -16
40 -27 22 -29 22 -57 -1z"/>
<path d="M432 1538 c-18 -18 -15 -35 10 -52 30 -21 60 -4 56 32 -2 20 -9 28
-28 30 -14 2 -31 -3 -38 -10z"/>
</g>
</svg>
